<mxfile host="app.diagrams.net" modified="2024-03-11T08:31:33.635Z" agent="Mozilla/5.0 (Windows NT 10.0; Win64; x64) AppleWebKit/537.36 (KHTML, like Gecko) Chrome/122.0.0.0 Safari/537.36" etag="xNZwuz0mN3GNt7FsGn-g" version="24.0.4" type="device">
  <diagram id="C5RBs43oDa-KdzZeNtuy" name="Page-1">
    <mxGraphModel dx="934" dy="737" grid="0" gridSize="10" guides="1" tooltips="1" connect="1" arrows="1" fold="1" page="1" pageScale="1" pageWidth="827" pageHeight="1169" math="0" shadow="0">
      <root>
        <mxCell id="WIyWlLk6GJQsqaUBKTNV-0" />
        <mxCell id="WIyWlLk6GJQsqaUBKTNV-1" parent="WIyWlLk6GJQsqaUBKTNV-0" />
        <mxCell id="WIyWlLk6GJQsqaUBKTNV-3" value="начало" style="rounded=1;whiteSpace=wrap;html=1;fontSize=18;glass=0;strokeWidth=1;shadow=0;" parent="WIyWlLk6GJQsqaUBKTNV-1" vertex="1">
          <mxGeometry x="270" y="129" width="120" height="40" as="geometry" />
        </mxCell>
        <mxCell id="WIyWlLk6GJQsqaUBKTNV-11" value="Конец" style="rounded=1;whiteSpace=wrap;html=1;fontSize=12;glass=0;strokeWidth=1;shadow=0;" parent="WIyWlLk6GJQsqaUBKTNV-1" vertex="1">
          <mxGeometry x="273" y="567" width="120" height="40" as="geometry" />
        </mxCell>
        <mxCell id="YWLN9xPVWwnnbP-Pcery-0" value="" style="endArrow=none;html=1;rounded=0;exitX=0.5;exitY=1;exitDx=0;exitDy=0;entryX=0.5;entryY=0;entryDx=0;entryDy=0;" parent="WIyWlLk6GJQsqaUBKTNV-1" source="WIyWlLk6GJQsqaUBKTNV-3" target="m1hOHymZukcm-C7CSCfu-1" edge="1">
          <mxGeometry width="50" height="50" relative="1" as="geometry">
            <mxPoint x="496" y="404" as="sourcePoint" />
            <mxPoint x="328" y="179" as="targetPoint" />
          </mxGeometry>
        </mxCell>
        <mxCell id="m1hOHymZukcm-C7CSCfu-1" value="Ввод: L1, L2, L3" style="shape=parallelogram;perimeter=parallelogramPerimeter;whiteSpace=wrap;html=1;fixedSize=1;fontSize=15;" parent="WIyWlLk6GJQsqaUBKTNV-1" vertex="1">
          <mxGeometry x="258" y="209" width="144" height="60" as="geometry" />
        </mxCell>
        <mxCell id="m1hOHymZukcm-C7CSCfu-4" value="" style="endArrow=none;html=1;rounded=0;entryX=0.5;entryY=1;entryDx=0;entryDy=0;exitX=0.5;exitY=0;exitDx=0;exitDy=0;" parent="WIyWlLk6GJQsqaUBKTNV-1" target="m1hOHymZukcm-C7CSCfu-1" edge="1">
          <mxGeometry width="50" height="50" relative="1" as="geometry">
            <mxPoint x="330" y="297" as="sourcePoint" />
            <mxPoint x="546" y="354" as="targetPoint" />
          </mxGeometry>
        </mxCell>
        <mxCell id="m1hOHymZukcm-C7CSCfu-11" value="S1, S2, S3 = get_Area_mult(L1, L2, L3)" style="rounded=0;whiteSpace=wrap;html=1;fontSize=16;" parent="WIyWlLk6GJQsqaUBKTNV-1" vertex="1">
          <mxGeometry x="235" y="297" width="196" height="60" as="geometry" />
        </mxCell>
        <mxCell id="m1hOHymZukcm-C7CSCfu-14" value="" style="endArrow=none;html=1;rounded=0;exitX=0.5;exitY=0;exitDx=0;exitDy=0;entryX=0.5;entryY=1;entryDx=0;entryDy=0;" parent="WIyWlLk6GJQsqaUBKTNV-1" source="DCm48XTz1rT2IgItMtPP-0" target="m1hOHymZukcm-C7CSCfu-11" edge="1">
          <mxGeometry width="50" height="50" relative="1" as="geometry">
            <mxPoint x="333" y="432" as="sourcePoint" />
            <mxPoint x="338" y="442" as="targetPoint" />
          </mxGeometry>
        </mxCell>
        <mxCell id="m1hOHymZukcm-C7CSCfu-15" value="Вывод&lt;br style=&quot;font-size: 15px;&quot;&gt;S1, S2, S3&lt;br style=&quot;font-size: 15px;&quot;&gt;в файл" style="shape=parallelogram;perimeter=parallelogramPerimeter;whiteSpace=wrap;html=1;fixedSize=1;fontSize=15;" parent="WIyWlLk6GJQsqaUBKTNV-1" vertex="1">
          <mxGeometry x="265" y="478" width="136" height="60" as="geometry" />
        </mxCell>
        <mxCell id="m1hOHymZukcm-C7CSCfu-16" value="" style="endArrow=none;html=1;rounded=0;exitX=0.5;exitY=1;exitDx=0;exitDy=0;entryX=0.5;entryY=0;entryDx=0;entryDy=0;" parent="WIyWlLk6GJQsqaUBKTNV-1" source="DCm48XTz1rT2IgItMtPP-0" target="m1hOHymZukcm-C7CSCfu-15" edge="1">
          <mxGeometry width="50" height="50" relative="1" as="geometry">
            <mxPoint x="333" y="492" as="sourcePoint" />
            <mxPoint x="338" y="442" as="targetPoint" />
          </mxGeometry>
        </mxCell>
        <mxCell id="m1hOHymZukcm-C7CSCfu-17" value="" style="endArrow=none;html=1;rounded=0;exitX=0.5;exitY=1;exitDx=0;exitDy=0;entryX=0.5;entryY=0;entryDx=0;entryDy=0;" parent="WIyWlLk6GJQsqaUBKTNV-1" source="m1hOHymZukcm-C7CSCfu-15" edge="1" target="WIyWlLk6GJQsqaUBKTNV-11">
          <mxGeometry width="50" height="50" relative="1" as="geometry">
            <mxPoint x="288" y="492" as="sourcePoint" />
            <mxPoint x="201" y="636" as="targetPoint" />
          </mxGeometry>
        </mxCell>
        <mxCell id="DCm48XTz1rT2IgItMtPP-0" value="Вывод: S1, S2, S3" style="shape=parallelogram;perimeter=parallelogramPerimeter;whiteSpace=wrap;html=1;fixedSize=1;fontSize=15;" vertex="1" parent="WIyWlLk6GJQsqaUBKTNV-1">
          <mxGeometry x="253" y="389" width="160" height="60" as="geometry" />
        </mxCell>
      </root>
    </mxGraphModel>
  </diagram>
</mxfile>
